<svg width="1402" height="590" viewBox="0 0 1402 590" fill="none" xmlns="http://www.w3.org/2000/svg">
<g opacity="0.1">
<path d="M211.582 270.244C226.231 255.428 226.231 231.407 211.582 216.591C196.934 201.776 173.183 201.776 158.535 216.591C143.886 231.407 143.886 255.428 158.535 270.244C173.183 285.06 196.934 285.06 211.582 270.244Z" fill="#2E3D5D"/>
<path d="M671.403 488.659C653.213 448.746 625.363 393.138 616.936 369.336C608.612 345.534 576.651 301.671 572.849 301.671C569.046 301.671 566.477 348.756 574.082 381.809C581.687 414.861 602.96 454.047 602.96 454.047C602.96 454.047 583.947 437.105 569.971 415.173C555.995 393.138 521.67 296.578 512.524 290.342C503.377 284.209 455.488 267.267 445.622 266.332C435.756 265.396 431.954 314.871 476.041 354.888C520.129 394.801 541.402 427.854 541.402 427.854C496.595 397.919 434.317 337.946 400.815 311.857C367.416 285.768 325.589 264.253 321.787 266.54C317.984 268.826 315.723 286.496 336.174 324.226C356.728 361.852 390.127 384.199 390.127 384.199C390.127 384.199 282.221 335.763 268.553 325.785C254.885 315.807 229.09 318.094 229.09 336.595C229.09 355.096 272.355 396.568 299.794 400.414C327.233 404.26 409.962 400.414 523.212 438.871C636.462 477.329 701 564.119 701 564.119C701 564.119 689.593 528.779 671.403 488.763V488.659Z" fill="#2E3D5D"/>
<path d="M504.302 560.065C492.895 590 505.535 576.176 537.188 574.617C568.84 573.058 688.976 590 688.976 590C688.976 590 638.106 514.644 561.338 477.849C484.571 440.951 416.95 430.245 321.273 431.7C225.493 433.259 111.524 410.184 48.5269 302.607C-14.6753 195.029 39.9972 65.2086 138.038 33.7149C138.038 33.7149 33.9339 90.0502 42.2581 212.491C50.5823 334.932 163.832 401.765 247.383 405.611C247.383 405.611 95.9029 350.419 74.1161 243.361C52.4321 136.407 115.943 57.5171 185.105 38.2883C254.268 19.0594 331.138 69.782 316.957 137.447C316.957 137.447 306.68 70.6135 246.663 69.782C186.647 69.0544 179.761 145.138 219.327 184.323C258.79 223.509 352.309 189.728 350.767 115.204C349.226 40.6789 247.383 -24.6992 143.382 9.18515C39.2778 42.8616 -39.7507 179.646 21.3962 306.453C82.5431 433.259 211.722 460.179 286.229 470.158C360.736 480.136 397.115 460.179 447.266 462.466C447.266 462.466 394.032 498.533 395.574 521.608C397.115 544.682 495.875 498.533 561.236 506.225C561.236 506.225 515.607 530.027 504.2 560.065H504.302Z" fill="#2E3D5D"/>
</g>
<g opacity="0.1">
<path d="M1190.42 270.244C1175.77 255.428 1175.77 231.407 1190.42 216.591C1205.07 201.776 1228.82 201.776 1243.47 216.591C1258.11 231.407 1258.11 255.428 1243.47 270.244C1228.82 285.06 1205.07 285.06 1190.42 270.244Z" fill="#2E3D5D"/>
<path d="M730.597 488.659C748.787 448.746 776.637 393.138 785.064 369.336C793.388 345.534 825.349 301.671 829.151 301.671C832.954 301.671 835.523 348.756 827.918 381.809C820.313 414.861 799.04 454.047 799.04 454.047C799.04 454.047 818.053 437.105 832.029 415.173C846.005 393.138 880.33 296.578 889.476 290.342C898.623 284.209 946.512 267.267 956.378 266.332C966.244 265.396 970.046 314.871 925.959 354.888C881.871 394.801 860.598 427.854 860.598 427.854C905.405 397.919 967.683 337.946 1001.18 311.857C1034.58 285.768 1076.41 264.253 1080.21 266.54C1084.02 268.826 1086.28 286.496 1065.83 324.226C1045.27 361.852 1011.87 384.199 1011.87 384.199C1011.87 384.199 1119.78 335.763 1133.45 325.785C1147.12 315.807 1172.91 318.094 1172.91 336.595C1172.91 355.096 1129.64 396.568 1102.21 400.414C1074.77 404.26 992.038 400.414 878.788 438.871C765.538 477.329 701 564.119 701 564.119C701 564.119 712.407 528.779 730.597 488.763V488.659Z" fill="#2E3D5D"/>
<path d="M897.698 560.065C909.105 590 896.465 576.176 864.812 574.617C833.16 573.058 713.024 590 713.024 590C713.024 590 763.894 514.644 840.662 477.849C917.429 440.951 985.05 430.245 1080.73 431.7C1176.51 433.259 1290.48 410.184 1353.47 302.607C1416.68 195.029 1362 65.2086 1263.96 33.7149C1263.96 33.7149 1368.07 90.0502 1359.74 212.491C1351.42 334.932 1238.17 401.765 1154.62 405.611C1154.62 405.611 1306.1 350.419 1327.88 243.361C1349.57 136.407 1286.06 57.5171 1216.89 38.2883C1147.73 19.0594 1070.86 69.782 1085.04 137.447C1085.04 137.447 1095.32 70.6135 1155.34 69.782C1215.35 69.0544 1222.24 145.138 1182.67 184.323C1143.21 223.509 1049.69 189.728 1051.23 115.204C1052.77 40.6789 1154.62 -24.6992 1258.62 9.18515C1362.72 42.8616 1441.75 179.646 1380.6 306.453C1319.46 433.259 1190.28 460.179 1115.77 470.158C1041.26 480.136 1004.88 460.179 954.734 462.466C954.734 462.466 1007.97 498.533 1006.43 521.608C1004.88 544.682 906.125 498.533 840.764 506.225C840.764 506.225 886.393 530.027 897.8 560.065H897.698Z" fill="#2E3D5D"/>
</g>
</svg>
