<svg width="701" height="590" viewBox="0 0 701 590" fill="none" xmlns="http://www.w3.org/2000/svg">
<path d="M489.418 270.244C474.769 255.428 474.769 231.407 489.418 216.591C504.066 201.776 527.817 201.776 542.465 216.591C557.114 231.407 557.114 255.428 542.465 270.244C527.817 285.06 504.066 285.06 489.418 270.244Z" fill="#2E3D5D"/>
<path d="M29.5971 488.659C47.787 448.746 75.6371 393.138 84.0641 369.336C92.3882 345.534 124.349 301.671 128.151 301.671C131.954 301.671 134.523 348.756 126.918 381.809C119.313 414.861 98.0405 454.047 98.0405 454.047C98.0405 454.047 117.053 437.105 131.029 415.173C145.005 393.138 179.33 296.578 188.476 290.342C197.623 284.209 245.512 267.267 255.378 266.332C265.244 265.396 269.046 314.871 224.959 354.888C180.871 394.801 159.598 427.854 159.598 427.854C204.405 397.919 266.683 337.946 300.185 311.857C333.584 285.768 375.411 264.253 379.213 266.54C383.016 268.826 385.277 286.496 364.826 324.226C344.272 361.852 310.873 384.199 310.873 384.199C310.873 384.199 418.779 335.763 432.447 325.785C446.115 315.807 471.91 318.094 471.91 336.595C471.91 355.096 428.645 396.568 401.206 400.414C373.767 404.26 291.038 400.414 177.788 438.871C64.5381 477.329 0 564.119 0 564.119C0 564.119 11.4072 528.779 29.5971 488.763V488.659Z" fill="#2E3D5D"/>
<path d="M196.698 560.065C208.105 590 195.465 576.176 163.812 574.617C132.16 573.058 12.0239 590 12.0239 590C12.0239 590 62.894 514.644 139.662 477.849C216.429 440.951 284.05 430.245 379.727 431.7C475.507 433.259 589.476 410.184 652.473 302.607C715.675 195.029 661.003 65.2086 562.962 33.7149C562.962 33.7149 667.066 90.0502 658.742 212.491C650.418 334.932 537.168 401.765 453.617 405.611C453.617 405.611 605.097 350.419 626.884 243.361C648.568 136.407 585.057 57.5171 515.895 38.2883C446.732 19.0594 369.862 69.782 384.043 137.447C384.043 137.447 394.32 70.6135 454.337 69.782C514.353 69.0544 521.239 145.138 481.673 184.323C442.21 223.509 348.691 189.728 350.233 115.204C351.774 40.6789 453.617 -24.6992 557.618 9.18515C661.722 42.8616 740.751 179.646 679.604 306.453C618.457 433.259 489.278 460.179 414.771 470.158C340.264 480.136 303.885 460.179 253.734 462.466C253.734 462.466 306.968 498.533 305.426 521.608C303.885 544.682 205.125 498.533 139.764 506.225C139.764 506.225 185.393 530.027 196.8 560.065H196.698Z" fill="#2E3D5D"/>
</svg>
