<svg width="121" height="113" viewBox="0 0 121 113" fill="none" xmlns="http://www.w3.org/2000/svg">
<path d="M20.5422 48.4073C15.2974 50.9915 14.6407 52.125 15.0271 57.927C12.425 52.7182 11.2836 52.066 5.44156 52.4497C10.6864 49.8655 11.3431 48.732 10.9567 42.9299C13.5588 48.1388 14.7001 48.791 20.5422 48.4073ZM62.3671 11.2453C56.812 9.39249 55.5485 9.73074 51.6898 14.1037C53.5554 8.58669 53.2148 7.33185 48.8117 3.49957C54.3668 5.35241 55.6303 5.01416 59.489 0.641222C57.6217 6.15211 57.964 7.41305 62.3671 11.2453ZM14.2859 109.998C8.73077 108.145 7.46724 108.483 3.6085 112.856C5.47413 107.339 5.13355 106.084 0.730403 102.252C6.2855 104.105 7.54902 103.767 11.4078 99.3938C9.54048 104.905 9.88272 106.166 14.2859 109.998ZM120.184 22.8818C115.246 21.2303 114.107 21.5351 110.68 25.426C112.343 20.5218 112.036 19.391 108.118 15.9873C113.057 17.6388 114.195 17.334 117.622 13.443C115.959 18.3473 116.264 19.4699 120.184 22.8818Z" fill="#FDD331"/>
</svg>
