<svg width="19" height="20" viewBox="0 0 19 20" fill="none" xmlns="http://www.w3.org/2000/svg">
<path fill-rule="evenodd" clip-rule="evenodd" d="M18 1.5H1V18.5H18V1.5ZM1 0.5C0.734784 0.5 0.48043 0.605357 0.292893 0.792893C0.105357 0.98043 0 1.23478 0 1.5V18.5C0 18.7652 0.105357 19.0196 0.292893 19.2071C0.48043 19.3946 0.734784 19.5 1 19.5H18C18.2652 19.5 18.5196 19.3946 18.7071 19.2071C18.8946 19.0196 19 18.7652 19 18.5V1.5C19 1.23478 18.8946 0.98043 18.7071 0.792893C18.5196 0.605357 18.2652 0.5 18 0.5H1Z" fill="#575757"/>
<path d="M14.498 6.09004C14.5465 6.13446 14.5857 6.188 14.6134 6.24759C14.6411 6.30718 14.6568 6.37165 14.6596 6.43732C14.6624 6.50298 14.6522 6.56855 14.6296 6.63028C14.6071 6.692 14.5725 6.74867 14.528 6.79704L8.41604 13.463C8.36952 13.5137 8.31303 13.5543 8.25012 13.5821C8.1872 13.61 8.11922 13.6246 8.05041 13.6249C7.98161 13.6253 7.91347 13.6115 7.85026 13.5843C7.78704 13.5571 7.73012 13.5172 7.68304 13.467L4.49504 10.073C4.4042 9.97637 4.35549 9.84757 4.35962 9.71498C4.36374 9.58239 4.42037 9.45687 4.51704 9.36604C4.61371 9.2752 4.74251 9.22649 4.8751 9.23061C5.00769 9.23474 5.1332 9.29137 5.22404 9.38804L8.04404 12.39L13.79 6.12004C13.8345 6.0716 13.888 6.0324 13.9476 6.00467C14.0072 5.97695 14.0717 5.96124 14.1373 5.95846C14.203 5.95567 14.2686 5.96586 14.3303 5.98844C14.392 6.01101 14.4487 6.04554 14.497 6.09004" fill="#D9B74B"/>
</svg>
