<svg width="1261" height="361" viewBox="0 0 1261 361" fill="none" xmlns="http://www.w3.org/2000/svg">
<path d="M190.001 242.624C203.156 229.323 203.156 207.757 190.001 194.455C176.847 181.154 155.519 181.154 142.365 194.455C129.21 207.757 129.21 229.323 142.365 242.624C155.519 255.926 176.847 255.926 190.001 242.624Z" fill="#2E3D5D" fill-opacity="0.1"/>
<path d="M602.921 438.717C586.586 402.883 561.577 352.958 554.01 331.589C546.534 310.219 517.834 270.84 514.419 270.84C511.005 270.84 508.697 313.112 515.526 342.787C522.356 372.462 541.459 407.642 541.459 407.642C541.459 407.642 524.386 392.431 511.835 372.742C499.284 352.958 468.461 266.267 460.247 260.668C452.034 255.162 409.029 239.952 400.169 239.112C391.31 238.272 387.895 282.691 427.486 318.618C467.077 354.451 486.18 384.126 486.18 384.126C445.943 357.251 390.018 303.407 359.933 279.985C329.94 256.562 292.38 237.246 288.965 239.299C285.55 241.352 283.52 257.215 301.885 291.089C320.342 324.87 350.335 344.933 350.335 344.933C350.335 344.933 253.435 301.448 241.161 292.489C228.887 283.531 205.723 285.584 205.723 302.194C205.723 318.804 244.576 356.038 269.216 359.491C293.856 362.943 368.146 359.491 469.845 394.018C571.544 428.545 629.499 506.465 629.499 506.465C629.499 506.465 619.256 474.737 602.921 438.81V438.717Z" fill="#2E3D5D" fill-opacity="0.1"/>
<path d="M452.864 502.825C442.621 529.701 453.972 517.289 482.396 515.89C510.82 514.49 618.702 529.701 618.702 529.701C618.702 529.701 573.02 462.046 504.083 429.012C435.146 395.884 374.422 386.273 288.504 387.579C202.493 388.979 100.148 368.263 43.5773 271.68C-13.1785 175.097 35.9175 58.5442 123.958 30.2692C123.958 30.2692 30.4727 80.8469 37.9478 190.774C45.423 300.701 147.122 360.704 222.15 364.157C222.15 364.157 86.121 314.605 66.5564 218.489C47.0841 122.466 104.117 51.6387 166.225 34.3751C228.333 17.1115 297.363 62.6501 284.628 123.399C284.628 123.399 275.399 63.3966 221.504 62.6501C167.609 61.9969 161.426 130.305 196.956 165.485C232.394 200.666 316.374 170.338 314.99 103.43C313.605 36.5214 222.15 -22.1749 128.757 8.2464C35.2715 38.481 -35.6962 161.286 19.2138 275.132C74.1238 388.979 190.127 413.148 257.034 422.106C323.941 431.065 356.61 413.148 401.646 415.201C401.646 415.201 353.842 447.582 355.226 468.298C356.61 489.014 445.297 447.582 503.991 454.487C503.991 454.487 463.016 475.857 452.772 502.825H452.864Z" fill="#2E3D5D" fill-opacity="0.1"/>
<path d="M1071 242.624C1057.84 229.323 1057.84 207.757 1071 194.455C1084.15 181.154 1105.48 181.154 1118.64 194.455C1131.79 207.757 1131.79 229.323 1118.64 242.624C1105.48 255.926 1084.15 255.926 1071 242.624Z" fill="#2E3D5D" fill-opacity="0.1"/>
<path d="M658.079 438.717C674.413 402.883 699.423 352.958 706.99 331.589C714.465 310.219 743.166 270.84 746.581 270.84C749.996 270.84 752.303 313.112 745.474 342.787C738.644 372.462 719.541 407.642 719.541 407.642C719.541 407.642 736.614 392.431 749.165 372.742C761.716 352.958 792.539 266.267 800.753 260.668C808.966 255.162 851.971 239.952 860.831 239.112C869.69 238.272 873.105 282.691 833.514 318.618C793.923 354.451 774.82 384.126 774.82 384.126C815.057 357.251 870.982 303.407 901.067 279.985C931.06 256.562 968.62 237.246 972.035 239.299C975.45 241.352 977.48 257.215 959.115 291.089C940.658 324.87 910.665 344.933 910.665 344.933C910.665 344.933 1007.56 301.448 1019.84 292.489C1032.11 283.531 1055.28 285.584 1055.28 302.194C1055.28 318.804 1016.42 356.038 991.784 359.491C967.144 362.943 892.854 359.491 791.155 394.018C689.456 428.545 631.501 506.465 631.501 506.465C631.501 506.465 641.744 474.737 658.079 438.81V438.717Z" fill="#2E3D5D" fill-opacity="0.1"/>
<path d="M808.136 502.825C818.379 529.701 807.028 517.289 778.604 515.89C750.18 514.49 642.298 529.701 642.298 529.701C642.298 529.701 687.98 462.046 756.917 429.012C825.854 395.884 886.578 386.273 972.496 387.579C1058.51 388.979 1160.85 368.263 1217.42 271.68C1274.18 175.097 1225.08 58.5442 1137.04 30.2692C1137.04 30.2692 1230.53 80.8469 1223.05 190.774C1215.58 300.701 1113.88 360.704 1038.85 364.157C1038.85 364.157 1174.88 314.605 1194.44 218.489C1213.92 122.466 1156.88 51.6387 1094.78 34.3751C1032.67 17.1115 963.637 62.6501 976.372 123.399C976.372 123.399 985.601 63.3966 1039.5 62.6501C1093.39 61.9969 1099.57 130.305 1064.04 165.485C1028.61 200.666 944.626 170.338 946.01 103.43C947.395 36.5214 1038.85 -22.1749 1132.24 8.2464C1225.73 38.481 1296.7 161.286 1241.79 275.132C1186.88 388.979 1070.87 413.148 1003.97 422.106C937.059 431.065 904.39 413.148 859.354 415.201C859.354 415.201 907.158 447.582 905.774 468.298C904.39 489.014 815.703 447.582 757.009 454.487C757.009 454.487 797.984 475.857 808.228 502.825H808.136Z" fill="#2E3D5D" fill-opacity="0.1"/>
</svg>
