<svg width="65" height="65" viewBox="0 0 65 65" fill="none" xmlns="http://www.w3.org/2000/svg">
<path d="M15.6396 11.892C9.89832 13.0394 8.96724 13.9705 7.81982 19.7118C6.67241 13.9705 5.74132 13.0394 0 11.892C5.74132 10.7446 6.67241 9.81348 7.81982 4.07216C8.96724 9.81348 9.89832 10.7446 15.6396 11.892ZM40.921 11.0585C36.0429 7.81134 34.7343 7.81134 29.8625 11.0585C33.1096 6.18035 33.1096 4.87175 29.8625 0C34.7406 3.24712 36.0492 3.24712 40.921 0C37.6739 4.87175 37.6739 6.18671 40.921 11.0585ZM15.47 44.9931C10.5919 41.746 9.28325 41.746 4.41151 44.9931C7.65863 40.115 7.65863 38.8064 4.41151 33.9347C9.28962 37.1818 10.5982 37.1818 15.47 33.9347C12.2228 38.8064 12.2228 40.1214 15.47 44.9931ZM55.1608 27.4192C50.8257 24.5284 49.6464 24.5284 45.3176 27.4192C48.2084 23.0841 48.2084 21.9048 45.3176 17.576C49.6528 20.4669 50.832 20.4669 55.1608 17.576C52.27 21.9112 52.27 23.0819 55.1608 27.4192Z" fill="#FDD331"/>
<path d="M23.0079 21.339L21.5082 22.8387C19.8517 24.4952 19.8517 27.181 21.5082 28.8376L54.5019 61.8313C56.1585 63.4878 58.8443 63.4878 60.5008 61.8313L62.0005 60.3316C63.6571 58.675 63.6571 55.9893 62.0005 54.3327L29.0068 21.339C27.3503 19.6825 24.6645 19.6825 23.0079 21.339Z" fill="white"/>
<path d="M21.3314 22.6684L22.8296 21.1701C23.6243 20.3754 24.6982 19.925 25.8151 19.9181C26.932 19.9111 28.0004 20.348 28.7852 21.1328L33.2239 25.5715L25.7328 33.0626L21.2941 28.6239C20.5093 27.8391 20.0723 26.7708 20.0793 25.6539C20.0863 24.537 20.5367 23.4631 21.3314 22.6684Z" fill="#AFAEB3"/>
</svg>
