<svg width="82" height="69" viewBox="0 0 82 69" fill="none" xmlns="http://www.w3.org/2000/svg">
<g clip-path="url(#clip0_110_52)">
<path d="M57.2552 31.6034C55.5419 29.8713 55.5419 27.0628 57.2552 25.3306C58.9685 23.5985 61.7464 23.5985 63.4597 25.3306C65.1731 27.0628 65.1731 29.8713 63.4597 31.6034C61.7464 33.3356 58.9685 33.3356 57.2552 31.6034Z" fill="#BD8F33"/>
<path d="M3.47371 57.1395C5.60124 52.4731 8.85865 45.9717 9.84428 43.1889C10.8179 40.406 14.5561 35.2778 15.0008 35.2778C15.4456 35.2778 15.7461 40.7827 14.8566 44.6471C13.9671 48.5115 11.479 53.0929 11.479 53.0929C11.479 53.0929 13.7027 51.1121 15.3374 48.548C16.9721 45.9717 20.9868 34.6823 22.0565 33.9532C23.1263 33.2362 28.7276 31.2554 29.8815 31.1461C31.0354 31.0367 31.4802 36.8211 26.3236 41.4997C21.1671 46.1661 18.6789 50.0305 18.6789 50.0305C23.9196 46.5307 31.2037 39.5189 35.1222 36.4687C39.0287 33.4185 43.9208 30.903 44.3655 31.1704C44.8103 31.4377 45.0747 33.5036 42.6827 37.9148C40.2788 42.3139 36.3723 44.9266 36.3723 44.9266C36.3723 44.9266 48.9932 39.2637 50.5919 38.0971C52.1905 36.9305 55.2075 37.1978 55.2075 39.3609C55.2075 41.524 50.1471 46.3727 46.9378 46.8224C43.7285 47.272 34.0524 46.8224 20.8065 51.3187C7.56049 55.815 0.0119781 65.962 0.0119781 65.962C0.0119781 65.962 1.34619 61.8303 3.47371 57.1517V57.1395Z" fill="#BD8F33"/>
<path d="M23.0182 65.4879C24.3524 68.9878 22.874 67.3715 19.1718 67.1892C15.4697 67.007 1.4184 68.9878 1.4184 68.9878C1.4184 68.9878 7.36827 60.1774 16.3472 55.8756C25.3261 51.5616 33.2352 50.3099 44.4257 50.48C55.6283 50.6623 68.9584 47.9645 76.3266 35.387C83.7189 22.8095 77.3243 7.63147 65.8573 3.94937C65.8573 3.94937 78.0335 10.5358 77.0599 24.8511C76.0862 39.1663 62.8403 46.9802 53.0681 47.4298C53.0681 47.4298 70.7854 40.977 73.3337 28.4603C75.8699 15.9557 68.4416 6.73221 60.3521 4.48406C52.2627 2.23591 43.2718 8.16617 44.9306 16.0772C44.9306 16.0772 46.1326 8.26339 53.1522 8.16617C60.1718 8.0811 60.9772 16.9765 56.3495 21.5579C51.7338 26.1392 40.7957 22.1898 40.976 13.4767C41.1563 4.76356 53.0681 -2.88015 65.2322 1.08146C77.4084 5.01876 86.6518 21.011 79.4999 35.8367C72.348 50.6623 57.239 53.8097 48.5245 54.9763C39.8101 56.1429 35.555 53.8097 29.6893 54.077C29.6893 54.077 35.9156 58.2938 35.7353 60.9916C35.555 63.6894 24.0039 58.2938 16.3592 59.1931C16.3592 59.1931 21.696 61.976 23.0302 65.4879H23.0182Z" fill="#BD8F33"/>
</g>
<defs>
<clipPath id="clip0_110_52">
<rect width="82" height="69" fill="white" transform="matrix(-1 0 0 1 82 0)"/>
</clipPath>
</defs>
</svg>
